<?xml version="1.0" encoding="UTF-8" standalone="no"?>
<!DOCTYPE svg PUBLIC "-//W3C//DTD SVG 1.1//EN"
 "http://www.w3.org/Graphics/SVG/1.1/DTD/svg11.dtd">
<!-- Generated by graphviz version 2.43.0 (0)
 -->
<!-- Title: G Pages: 1 -->
<svg width="1221pt" height="751pt"
 viewBox="0.00 0.00 1221.00 751.00" xmlns="http://www.w3.org/2000/svg" xmlns:xlink="http://www.w3.org/1999/xlink">
<g id="graph0" class="graph" transform="scale(1 1) rotate(0) translate(4 747)">
<title>G</title>
<polygon fill="white" stroke="transparent" points="-4,4 -4,-747 1217,-747 1217,4 -4,4"/>
<g id="clust1" class="cluster">
<title>cluster_0</title>
<polygon fill="#000000" fill-opacity="0.058824" stroke="#000000" stroke-opacity="0.058824" points="8,-8 8,-735 1205,-735 1205,-8 8,-8"/>
<text text-anchor="middle" x="606.5" y="-719.8" font-family="Times,serif" font-size="14.00">Cardano</text>
</g>
<g id="clust2" class="cluster">
<title>cluster_1</title>
<polygon fill="#000000" fill-opacity="0.058824" stroke="#000000" stroke-opacity="0.058824" points="16,-16 16,-704 1197,-704 1197,-16 16,-16"/>
<text text-anchor="middle" x="606.5" y="-688.8" font-family="Times,serif" font-size="14.00">Ledger</text>
</g>
<g id="clust3" class="cluster">
<title>cluster_2</title>
<polygon fill="#000000" fill-opacity="0.058824" stroke="#000000" stroke-opacity="0.058824" points="114,-80 114,-673 1189,-673 1189,-80 114,-80"/>
<text text-anchor="middle" x="651.5" y="-657.8" font-family="Times,serif" font-size="14.00">Update</text>
</g>
<g id="clust4" class="cluster">
<title>cluster_3</title>
<polygon fill="#000000" fill-opacity="0.058824" stroke="#000000" stroke-opacity="0.058824" points="271,-451 271,-598 403,-598 403,-451 271,-451"/>
<text text-anchor="middle" x="337" y="-582.8" font-family="Times,serif" font-size="14.00">Activation</text>
</g>
<g id="clust5" class="cluster">
<title>cluster_4</title>
<polygon fill="#000000" fill-opacity="0.058824" stroke="#000000" stroke-opacity="0.058824" points="235,-88 235,-235 1181,-235 1181,-88 235,-88"/>
<text text-anchor="middle" x="708" y="-219.8" font-family="Times,serif" font-size="14.00">Env</text>
</g>
<!-- u4 -->
<g id="node1" class="node">
<title>u4</title>
<ellipse fill="#bbbbff" stroke="black" stroke-width="0" cx="755" cy="-42" rx="40.09" ry="18"/>
<text text-anchor="middle" x="755" y="-38.3" font-family="Times,serif" font-size="14.00">Assert</text>
</g>
<!-- u14 -->
<g id="node2" class="node">
<title>u14</title>
<ellipse fill="#bbbbff" stroke="black" stroke-width="0" cx="65" cy="-624" rx="40.89" ry="18"/>
<text text-anchor="middle" x="65" y="-620.3" font-family="Times,serif" font-size="14.00">Debug</text>
</g>
<!-- u0 -->
<g id="node3" class="node">
<title>u0</title>
<ellipse fill="#bbbbff" stroke="black" stroke-width="2" cx="337" cy="-624" rx="44.69" ry="18"/>
<text text-anchor="middle" x="337" y="-620.3" font-family="Times,serif" font-size="14.00">Update</text>
</g>
<!-- u7 -->
<g id="node9" class="node">
<title>u7</title>
<ellipse fill="#ffbbbb" stroke="black" stroke-width="2" cx="337" cy="-549" rx="57.69" ry="18"/>
<text text-anchor="middle" x="337" y="-545.3" font-family="Times,serif" font-size="14.00">Activation</text>
</g>
<!-- u0&#45;&gt;u7 -->
<g id="edge1" class="edge">
<title>u0&#45;&gt;u7</title>
<path fill="none" stroke="black" d="M337,-605.7C337,-597.25 337,-586.87 337,-577.37"/>
<polygon fill="black" stroke="black" points="340.5,-577.18 337,-567.18 333.5,-577.18 340.5,-577.18"/>
</g>
<!-- u9 -->
<g id="node4" class="node">
<title>u9</title>
<ellipse fill="#ffbbbb" stroke="black" stroke-width="0" cx="173" cy="-186" rx="51.19" ry="18"/>
<text text-anchor="middle" x="173" y="-182.3" font-family="Times,serif" font-size="14.00">Proposal</text>
</g>
<!-- u10 -->
<g id="node5" class="node">
<title>u10</title>
<ellipse fill="#ffbbbb" stroke="black" stroke-width="0" cx="490" cy="-477" rx="51.99" ry="18"/>
<text text-anchor="middle" x="490" y="-473.3" font-family="Times,serif" font-size="14.00">Approval</text>
</g>
<!-- u11 -->
<g id="node6" class="node">
<title>u11</title>
<ellipse fill="#ffbbbb" stroke="black" stroke-width="0" cx="494" cy="-405" rx="48.99" ry="18"/>
<text text-anchor="middle" x="494" y="-401.3" font-family="Times,serif" font-size="14.00">Ideation</text>
</g>
<!-- u10&#45;&gt;u11 -->
<g id="edge9" class="edge">
<title>u10&#45;&gt;u11</title>
<path fill="none" stroke="black" d="M490.99,-458.7C491.43,-450.98 491.96,-441.71 492.45,-433.11"/>
<polygon fill="black" stroke="black" points="495.95,-433.29 493.02,-423.1 488.96,-432.89 495.95,-433.29"/>
</g>
<!-- u13 -->
<g id="node8" class="node">
<title>u13</title>
<ellipse fill="#ffbbbb" stroke="black" stroke-width="0" cx="548" cy="-333" rx="81.49" ry="18"/>
<text text-anchor="middle" x="548" y="-329.3" font-family="Times,serif" font-size="14.00">ProposalsState</text>
</g>
<!-- u11&#45;&gt;u13 -->
<g id="edge10" class="edge">
<title>u11&#45;&gt;u13</title>
<path fill="none" stroke="black" d="M506.8,-387.41C513.36,-378.91 521.48,-368.37 528.78,-358.91"/>
<polygon fill="black" stroke="black" points="531.58,-361.01 534.92,-350.96 526.04,-356.74 531.58,-361.01"/>
</g>
<!-- u12 -->
<g id="node7" class="node">
<title>u12</title>
<ellipse fill="#ffbbbb" stroke="black" stroke-width="0" cx="556" cy="-261" rx="76.09" ry="18"/>
<text text-anchor="middle" x="556" y="-257.3" font-family="Times,serif" font-size="14.00">ProposalState</text>
</g>
<!-- u12&#45;&gt;u9 -->
<g id="edge15" class="edge">
<title>u12&#45;&gt;u9</title>
<path fill="none" stroke="black" d="M479.88,-259.43C398.27,-257.89 274.55,-252.6 231,-235 217.61,-229.59 204.98,-219.91 194.94,-210.65"/>
<polygon fill="black" stroke="black" points="197.1,-207.87 187.48,-203.41 192.22,-212.89 197.1,-207.87"/>
</g>
<!-- u1 -->
<g id="node11" class="node">
<title>u1</title>
<ellipse fill="#ffbbff" stroke="black" stroke-width="0" cx="560" cy="-186" rx="132.68" ry="18"/>
<text text-anchor="middle" x="560" y="-182.3" font-family="Times,serif" font-size="14.00">HasAdversarialStakeRatio</text>
</g>
<!-- u12&#45;&gt;u1 -->
<g id="edge11" class="edge">
<title>u12&#45;&gt;u1</title>
<path fill="none" stroke="black" d="M556.95,-242.7C557.41,-234.25 557.98,-223.87 558.5,-214.37"/>
<polygon fill="black" stroke="black" points="562.01,-214.35 559.06,-204.18 555.02,-213.97 562.01,-214.35"/>
</g>
<!-- u2 -->
<g id="node12" class="node">
<title>u2</title>
<ellipse fill="#ffbbff" stroke="black" stroke-width="0" cx="1062" cy="-186" rx="111.28" ry="18"/>
<text text-anchor="middle" x="1062" y="-182.3" font-family="Times,serif" font-size="14.00">HasStakeDistribution</text>
</g>
<!-- u12&#45;&gt;u2 -->
<g id="edge12" class="edge">
<title>u12&#45;&gt;u2</title>
<path fill="none" stroke="black" d="M631.08,-257.94C726.27,-254.85 884.85,-247.93 942,-235 968.9,-228.91 997.64,-217.6 1020.25,-207.49"/>
<polygon fill="black" stroke="black" points="1021.9,-210.58 1029.54,-203.25 1018.99,-204.22 1021.9,-210.58"/>
</g>
<!-- u5 -->
<g id="node14" class="node">
<title>u5</title>
<ellipse fill="#ffbbff" stroke="black" stroke-width="0" cx="822" cy="-186" rx="111.28" ry="18"/>
<text text-anchor="middle" x="822" y="-182.3" font-family="Times,serif" font-size="14.00">HasVotingPeriodsCap</text>
</g>
<!-- u12&#45;&gt;u5 -->
<g id="edge13" class="edge">
<title>u12&#45;&gt;u5</title>
<path fill="none" stroke="black" d="M621.7,-251.76C647.06,-247.8 676.14,-242.3 702,-235 727.79,-227.72 755.64,-216.79 778.01,-207.19"/>
<polygon fill="black" stroke="black" points="779.46,-210.37 787.24,-203.18 776.67,-203.96 779.46,-210.37"/>
</g>
<!-- u6 -->
<g id="node15" class="node">
<title>u6</title>
<ellipse fill="#ffbbff" stroke="black" stroke-width="0" cx="326" cy="-186" rx="83.39" ry="18"/>
<text text-anchor="middle" x="326" y="-182.3" font-family="Times,serif" font-size="14.00">TracksSlotTime</text>
</g>
<!-- u12&#45;&gt;u6 -->
<g id="edge14" class="edge">
<title>u12&#45;&gt;u6</title>
<path fill="none" stroke="black" d="M489.68,-252.14C466.61,-248.32 440.8,-242.81 418,-235 398.3,-228.25 377.63,-217.81 360.89,-208.39"/>
<polygon fill="black" stroke="black" points="362.43,-205.24 352.02,-203.29 358.94,-211.31 362.43,-205.24"/>
</g>
<!-- u13&#45;&gt;u12 -->
<g id="edge16" class="edge">
<title>u13&#45;&gt;u12</title>
<path fill="none" stroke="black" d="M549.98,-314.7C550.86,-306.98 551.92,-297.71 552.9,-289.11"/>
<polygon fill="black" stroke="black" points="556.39,-289.44 554.05,-279.1 549.43,-288.64 556.39,-289.44"/>
</g>
<!-- u7&#45;&gt;u10 -->
<g id="edge6" class="edge">
<title>u7&#45;&gt;u10</title>
<path fill="none" stroke="black" d="M368.33,-533.67C392.13,-522.78 425.02,-507.73 450.6,-496.03"/>
<polygon fill="black" stroke="black" points="452.38,-499.06 460.01,-491.72 449.46,-492.7 452.38,-499.06"/>
</g>
<!-- u8 -->
<g id="node10" class="node">
<title>u8</title>
<ellipse fill="#bbffff" stroke="black" stroke-width="0" cx="326" cy="-477" rx="36" ry="18"/>
<text text-anchor="middle" x="326" y="-473.3" font-family="Times,serif" font-size="14.00">State</text>
</g>
<!-- u7&#45;&gt;u8 -->
<g id="edge5" class="edge">
<title>u7&#45;&gt;u8</title>
<path fill="none" stroke="black" d="M334.28,-530.7C333.07,-522.98 331.61,-513.71 330.26,-505.11"/>
<polygon fill="black" stroke="black" points="333.7,-504.44 328.69,-495.1 326.78,-505.53 333.7,-504.44"/>
</g>
<!-- u8&#45;&gt;u9 -->
<g id="edge8" class="edge">
<title>u8&#45;&gt;u9</title>
<path fill="none" stroke="black" d="M317.11,-459.21C291.5,-410.83 217.39,-270.84 186.63,-212.75"/>
<polygon fill="black" stroke="black" points="189.68,-211.03 181.91,-203.83 183.5,-214.31 189.68,-211.03"/>
</g>
<!-- u8&#45;&gt;u6 -->
<g id="edge7" class="edge">
<title>u8&#45;&gt;u6</title>
<path fill="none" stroke="black" d="M326,-458.79C326,-410.4 326,-272.87 326,-214.13"/>
<polygon fill="black" stroke="black" points="329.5,-214.12 326,-204.12 322.5,-214.12 329.5,-214.12"/>
</g>
<!-- u3 -->
<g id="node13" class="node">
<title>u3</title>
<ellipse fill="#ffbbff" stroke="black" stroke-width="0" cx="699" cy="-114" rx="92.88" ry="18"/>
<text text-anchor="middle" x="699" y="-110.3" font-family="Times,serif" font-size="14.00">StakeDistribution</text>
</g>
<!-- u2&#45;&gt;u3 -->
<g id="edge2" class="edge">
<title>u2&#45;&gt;u3</title>
<path fill="none" stroke="black" d="M993.3,-171.75C930.18,-159.58 836.91,-141.59 772.36,-129.15"/>
<polygon fill="black" stroke="black" points="772.74,-125.66 762.26,-127.2 771.42,-132.53 772.74,-125.66"/>
</g>
<!-- u3&#45;&gt;u4 -->
<g id="edge3" class="edge">
<title>u3&#45;&gt;u4</title>
<path fill="none" stroke="black" d="M712.56,-96.05C719.47,-87.42 727.99,-76.76 735.59,-67.27"/>
<polygon fill="black" stroke="black" points="738.44,-69.3 741.95,-59.31 732.97,-64.93 738.44,-69.3"/>
</g>
<!-- u6&#45;&gt;u4 -->
<g id="edge4" class="edge">
<title>u6&#45;&gt;u4</title>
<path fill="none" stroke="black" d="M385.26,-173.25C396.12,-171.32 407.38,-169.48 418,-168 460.34,-162.11 772.22,-163.61 801,-132 816.56,-114.91 810.98,-100.84 801,-80 797.91,-73.54 793.07,-67.85 787.68,-62.99"/>
<polygon fill="black" stroke="black" points="789.52,-59.98 779.52,-56.48 785.15,-65.45 789.52,-59.98"/>
</g>
</g>
</svg>
